<?xml version="1.0" encoding="utf-8"?>
<svg version="1.1" id="Layer_1" xmlns="http://www.w3.org/2000/svg" xmlns:xlink="http://www.w3.org/1999/xlink" x="0px" y="0px"
	 viewBox="0 0 1538.734 1937.794" enable-background="new 0 0 1538.734 1937.794" xml:space="preserve">
<path d="M1393.932,901.084c-16.88-18.866-33.741-30.084-43.232-40.612c-1.843-2.189-55.535-73.165-58.008-98.574
	c-2.016-15.428-1.127-39.732,7.685-58.556c3.968-8.455,5.425-23.4,6.223-32.767c2.721-20.255-8.764-26.241-9.498-44.938
	c-2.911-24.239-1.027-10.738-16.879-59.897c-2.43-7.19-6.756-13.58-8.972-20.854c-2.201-7.022-3.565-14.296-6.329-21.136
	c-3.146-8.157-5.499-16.589-7.761-25.021c-13.216-45.172-26.634-46.516-25.5-63.964c2.803-4.57,7.853-7.236,10.549-11.844
	c1.051-5.065-0.678-10.617,1.759-15.416c4.204-6.048,12.072-6.855,18.645-8.553c6.88-2.031,14.906,1.672,16.071-4.593
	c-1.759-3.1-4.555-5.415-6.725-8.195c-1.021-1.493-3.214-2.315-3.321-4.273c1.127-3.717,3.603-6.824,5.499-10.161
	c0.754-1.721,0.312-3.694,0.472-5.499c2.62,0.015,3.252,2.582,3.938,4.616c1.828-0.472,3.77-0.746,5.377-1.828
	c3.26-10.141-7.867-17.663-12.08-25.15c0.967-5.309,2.049-10.602,3.108-15.896c2.969-10.798-1.169-11.275,0.823-17.434
	c-7.845-10.922-20.367-16.627-30.626-24.823c-6.68-5.019-14.875-7.236-22.812-9.399c-7.099-1.813-13.618-5.575-20.976-6.383
	c-8.706-0.998-16.429-5.583-25.013-7.045c-6.901-1.432-14.075-2.544-20.184-6.276c-30.395-18.092-23.304-6.639-65.785-28.661
	c-23.55-13.895-44.168-14.221-54.855-16.848c-30.723-6.943-21.8-2.794-33.376-4.509c-8.866-0.785-16.993-5.141-25.896-5.682
	c-17.429-1.518-18.864-3.358-35.783-6.185c0.129-2.772,3.382-1.744,5.255-2.262c-3.04-4.177-2.383-4.324-9.742-5.385
	c-1.172-0.203-16.815-1.512-25.356-1.447c-7.175-0.076-13.428,4.433-20.542,4.715c-6.261,0.434-12.095-2.43-18.287-2.826
	c-19.373-0.696-40.047-26.141-89.861-16.947c-7.512,1.116-29.954,9.195-46.477,10.572c-31.101,5.079-23.182-1.445-73.934,29.949
	c-14.671,9.116-34.567,12.224-47.809,13.009c-7.045,1.584-10.229,8.736-15.37,13.047c-5.278,5.065-12.743,6.208-19.377,8.561
	c-3.075,1.076-22.576,10.246-35.356,11.524c-2.91-0.449-5.644-2.003-8.66-1.142c2.428-13.104,12.052-14.123,18.501-19.141
	c-5.532-0.724-25.261,3.245-30.489,7.792c-13.837,12.464-13.462,20.052-19.064,28.326c-2.955,4.6-7.091,8.744-8.005,14.35
	c-1.227,6.413-2.521,13.36-7.282,18.204c-11.272,11.32-37.677-10.073-44.725-5.453c-0.302,8.648,15.716,13.387,21.875,23.33
	c1.662,6.02-2.148,25.199-8.409,30.862c-5.476,4.928-12.392,7.792-18.547,11.752c-12.445,6.741-20.58,18.691-30.093,28.753
	c-22.482,25.552-32.778,51.453-42.988,72.251c-10.287,21.231-30.348,83.681-32.188,94.735
	c-15.118,83.7-19.954,85.564-16.513,100.303c0.804,3.419,10.769,101.98,11.258,105.924c0.536,40.255,39.045,88.289,49.294,135.956
	c26.787,130.771,30.731,80.096,42.592,127.982c4.718,20.472,17.665,28.988,23.231,36.423c18.917,24.745,8.195,63.334,13.36,91.315
	c0.998,8.173,4.105,15.865,6.185,23.794c4.287,14.33-4.428,17.784-10.724,24.83c-11.808,12.641-4.784,10.4-24.929,24.487
	c-16.16,11.352-11.745,24.738-14.601,36.666c-4.823,19.372,2.935,27.182,0.632,35.76c-2.691,8.436-15.123,12.172-22.979,29.537
	c-8.211,17.937-3.834,24.738-13.322,36.042c-17.421,20.564-6.444,35.831-16.741,43.3c-6.261,4.669-14.129,5.949-21.448,8.096
	c-30.661,8.929-63.436,61.48-75.747,76.052c-69.711,81.329-94.932,167.09-98.612,176.545c-7.342,18.938-16.115,26.526-30.161,84.354
	c-1.944,6.717,6.097,6.45,12.08,9.673h871.08c2.163-1.828,4.936-2.354,7.533-3.229c6.519-2.056,1.315-8.965-1.995-16.917
	c-2.323-5.507-5.263-10.755-8.912-15.492c-9.896-12.745-28.914-52.794-47.672-80.195c-39.811-57.281-35.851-40.526-1.539-114.249
	c3.382-7.152,4.997-14.974,8.363-22.126c18.292-43.018,35.626-54.691,46.743-78.154c18.603-34.436,4.197-60.609,17.114-101.712
	c11.059-38.92,67.556-22.85,101.324-22.85c5.506,0.859,85.791-5.173,89.83-6.208c44.892-9.368,42.696-15.81,53.149-24.16
	c51.449-43.158,23.919-79.586,18.547-110.03c-3.317-16.009,3.472-20.474,5.484-27.922c5.758-20.825,4.872-21.425,13.444-34.016
	c2.521-3.793,4.38-8.508,3.26-13.085c-13.119-6.258-44.891-19.221-53.225-23.558c25.405-1.882,66.337-3.022,70.248-4.006
	c6.262-3.709,5.491-40.283,5.187-46.956c-0.221-4.311-2.026-8.302-4.197-11.943c-4.599-7.677-8.984-25.686-1.904-33.589
	c9.35-10.092,31.659-6.439,47.566-15.363C1408.355,950.495,1410.082,919.305,1393.932,901.084z"/>
</svg>
